<?xml version="1.0" encoding="UTF-8" standalone="no"?>
<svg
   xmlns:dc="http://purl.org/dc/elements/1.1/"
   xmlns:cc="http://creativecommons.org/ns#"
   xmlns:rdf="http://www.w3.org/1999/02/22-rdf-syntax-ns#"
   xmlns:svg="http://www.w3.org/2000/svg"
   xmlns="http://www.w3.org/2000/svg"
   xmlns:sodipodi="http://sodipodi.sourceforge.net/DTD/sodipodi-0.dtd"
   xmlns:inkscape="http://www.inkscape.org/namespaces/inkscape"
   width="2464"
   height="2500"
   viewBox="10.589 10.32 46.699 47.375"
   id="svg2"
   version="1.1"
   inkscape:version="0.91 r13725"
   sodipodi:docname="skype.svg">
  <metadata
     id="metadata12">
    <rdf:RDF>
      <cc:Work
         rdf:about="">
        <dc:format>image/svg+xml</dc:format>
        <dc:type
           rdf:resource="http://purl.org/dc/dcmitype/StillImage" />
      </cc:Work>
    </rdf:RDF>
  </metadata>
  <defs
     id="defs10" />
  <sodipodi:namedview
     pagecolor="#ffffff"
     bordercolor="#666666"
     borderopacity="1"
     objecttolerance="10"
     gridtolerance="10"
     guidetolerance="10"
     inkscape:pageopacity="0"
     inkscape:pageshadow="2"
     inkscape:window-width="1446"
     inkscape:window-height="787"
     id="namedview8"
     showgrid="false"
     inkscape:zoom="0.0944"
     inkscape:cx="-849.5678"
     inkscape:cy="1250"
     inkscape:window-x="222"
     inkscape:window-y="171"
     inkscape:window-maximized="0"
     inkscape:current-layer="svg2" />
  <path
     d="M41.254 57.359c-.641-.213-1.601-.426-2.134-.64-.64-.319-1.387-.319-3.733-.213-2.24.106-3.414 0-5.013-.214C21.84 54.8 15.013 48.613 12.56 40.08c-.427-1.6-.533-2.453-.533-6.293 0-4.161-.107-4.48-.64-6.187-3.093-8.427 3.2-17.28 12.16-17.28 1.813 0 4.053.534 5.333 1.173.854.427 1.387.533 4.693.533 2.987 0 4.16.107 5.653.534 6.721 1.707 12.16 6.08 15.04 12.16 1.813 3.733 2.454 7.574 2.026 11.946-.213 2.348-.213 2.561.32 3.947 1.707 5.014.107 10.773-4.053 14.187-1.281 1.067-3.84 2.24-5.44 2.667-1.601.32-4.16.32-5.761-.107h-.104zm-2.881-8.213c3.521-.746 6.613-2.88 7.787-5.439 1.493-3.094 1.066-6.721-.96-8.961-1.707-1.92-4.267-2.986-10.347-4.479-4.054-.96-5.014-1.387-5.867-2.347-.747-.854-.854-1.493-.213-2.453.64-1.067 2.24-1.707 4.373-1.813 3.094-.213 4.48.533 6.293 3.413 1.387 2.134 2.773 2.667 4.588 1.813 2.346-1.173 2.133-5.013-.428-7.253-2.453-2.026-5.119-2.88-9.6-2.88-4.693 0-7.894.96-10.027 3.093-1.707 1.707-2.026 2.667-2.026 5.333 0 2.773.32 3.626 2.133 5.227 1.92 1.813 3.52 2.454 9.279 3.84 4.054.96 5.121 1.493 6.08 2.56.428.534.641.96.641 1.92 0 1.067-.107 1.28-.96 2.134-1.28 1.279-3.2 1.812-5.653 1.707-2.88-.214-4.16-1.067-5.653-4.054-1.067-2.026-1.92-2.773-3.307-2.773-3.094 0-4.16 2.56-2.56 5.866 1.387 2.881 4.16 4.801 7.68 5.547 2.133.427 6.827.427 8.854 0h-.107z"
     id="path6"
     fill="#000"
     style="fill:#88fcb0;fill-opacity:1" />
</svg>
